<?xml version="1.0" encoding="UTF-8" standalone="no"?>
<!-- Created with Inkscape (http://www.inkscape.org/) -->

<svg
   width="11.007596mm"
   height="13.7604mm"
   viewBox="0 0 11.007596 13.7604"
   version="1.1"
   id="svg1"
   inkscape:version="1.3 (0e150ed6c4, 2023-07-21)"
   sodipodi:docname="code.svg"
   xmlns:inkscape="http://www.inkscape.org/namespaces/inkscape"
   xmlns:sodipodi="http://sodipodi.sourceforge.net/DTD/sodipodi-0.dtd"
   xmlns="http://www.w3.org/2000/svg"
   xmlns:svg="http://www.w3.org/2000/svg">
  <sodipodi:namedview
     id="namedview1"
     pagecolor="#ffffff"
     bordercolor="#000000"
     borderopacity="0.25"
     inkscape:showpageshadow="2"
     inkscape:pageopacity="0.0"
     inkscape:pagecheckerboard="0"
     inkscape:deskcolor="#d1d1d1"
     inkscape:document-units="mm"
     inkscape:zoom="4.5817647"
     inkscape:cx="11.676724"
     inkscape:cy="5.0198999"
     inkscape:window-width="1920"
     inkscape:window-height="1003"
     inkscape:window-x="1920"
     inkscape:window-y="0"
     inkscape:window-maximized="1"
     inkscape:current-layer="layer1" />
  <defs
     id="defs1" />
  <g
     inkscape:label="Layer 1"
     inkscape:groupmode="layer"
     id="layer1"
     transform="translate(-69.05625,-203.46458)">
    <path
       id="path3"
       style="fill:#ea7c45;fill-opacity:1;stroke-width:0.264582"
       d="m 70.431876,203.46458 c -0.76368,0 -1.375626,0.61246 -1.375626,1.37614 v 11.00811 a 1.3759956,1.3759956 0 0 0 1.375626,1.37615 h 8.256344 a 1.3759956,1.3759956 0 0 0 1.375626,-1.37615 v -8.25582 l -4.127913,-4.12843 z m 4.816244,1.03197 3.783748,3.78427 H 75.24812 Z m -0.75706,4.60902 c 0.07473,0 0.149769,1.4e-4 0.187069,0.0749 l 0.187068,0.2992 h 0.07493 l 0.299207,-0.262 c 0,-0.0375 0.03772,-0.0372 0.03772,-0.0372 0.07484,0 0.111805,0.0374 0.149345,0.0749 l 0.112655,0.33641 c 0,0.0375 0.03739,0.0377 0.07493,0.0377 l 0.299206,-0.22479 h 0.03772 c 0.03753,-0.0376 0.112138,1.3e-4 0.112138,0.0749 l 0.07493,0.37414 h 0.03772 l 0.336413,-0.14935 h 0.03772 c 0.07484,0 0.112655,0.0373 0.112655,0.11214 v 0.37414 c 0.0373,0.0373 0.07441,0.0374 0.07441,0.0749 l 0.374654,-0.0749 h 0.03721 c 0.0373,0 0.07493,0.0379 0.07493,0.11265 l -0.07493,0.37414 c 0.03754,0 0.03772,0.0372 0.03772,0.0372 h 0.374137 c 0.03754,0 0.0746,2.2e-4 0.112138,0.0377 v 0.11214 l -0.149345,0.33693 c 0,0.0373 0.03721,0.0374 0.03721,0.0749 l 0.374137,0.0749 c 0,0.0375 0.03772,0.0372 0.03772,0.0372 0.07508,0.0373 0.07526,0.11236 0.03772,0.14986 l -0.224792,0.29921 c 0.0373,0 0.03721,0.0374 0.03721,0.0749 l 0.33693,0.11214 0.03772,0.0377 c 0.03754,0.0373 0.03754,0.11236 0,0.14986 l -0.262,0.262 v 0.0744 l 0.336931,0.18706 h 5.16e-4 c 0.0373,0.11216 0.03712,0.1873 -0.03772,0.2248 l -0.299206,0.18706 v 0.0744 l 0.299206,0.262 c 0.03754,0 0.03772,0.0377 0.03772,0.0377 0,0.0749 -0.03739,0.11185 -0.07493,0.14935 l -0.33693,0.11265 -0.03772,0.0749 0.224793,0.29921 v 0.0377 c 0.03753,0.0376 -9.1e-5,0.11214 -0.07493,0.11214 l -0.374137,0.0749 c 0,0.0373 -0.03721,0.0369 -0.03721,0.0744 l 0.149344,0.33693 v 0.0377 c 0,0.0749 -0.0373,0.11214 -0.112137,0.11214 h -0.374138 l -0.07493,0.0749 0.07493,0.37414 v 0.0377 c 0,0.0375 -0.03781,0.0749 -0.112654,0.0749 l -0.374138,-0.0749 -0.07493,0.0749 v 0.41134 c -0.03732,0.0375 -0.111805,0.0751 -0.149344,0.0377 l -0.336931,-0.14986 c -0.0373,0 -0.03739,0.0377 -0.07493,0.0377 l -0.07493,0.37414 c -0.03754,0 -0.03721,0.0372 -0.03721,0.0372 -0.03732,0.075 -0.112321,0.0752 -0.149861,0.0377 l -0.299207,-0.22479 c 0,0.0375 -0.03739,0.0377 -0.07493,0.0377 l -0.112654,0.33693 -0.03721,0.0372 c -0.03732,0.0375 -0.112322,0.0375 -0.149862,0 l -0.261999,-0.262 h -0.07493 l -0.187069,0.29972 -0.03721,0.0372 c -0.03733,0.0373 -0.112322,2.9e-4 -0.149862,-0.0372 l -0.187038,-0.29908 h -0.07493 l -0.299207,0.262 c 0,0.0375 -0.03772,0.0377 -0.03772,0.0377 -0.07485,0 -0.112322,-0.0374 -0.149862,-0.0749 l -0.112138,-0.33693 c 0,-0.0375 -0.03739,-0.0372 -0.07493,-0.0372 l -0.299206,0.22428 h -0.03772 c -0.03753,0.0376 -0.112138,-1.3e-4 -0.112138,-0.0749 l -0.07493,-0.37414 h -0.03772 l -0.33693,0.14986 h -0.03721 c -0.07484,0 -0.112655,-0.0373 -0.112655,-0.11214 v -0.37465 c -0.0373,-0.0373 -0.07493,-0.0369 -0.07493,-0.0744 l -0.374138,0.0744 h -0.03721 c -0.0373,0 -0.07493,-0.0373 -0.07493,-0.11214 l 0.07493,-0.37413 c -0.0373,0 -0.03739,-0.0377 -0.07493,-0.0377 h -0.411861 c -0.03754,-0.0373 -0.07475,-0.11236 -0.03721,-0.14986 l 0.149345,-0.33641 c 0,-0.0373 -0.03721,-0.0374 -0.03721,-0.0749 l -0.374654,-0.0749 c 0,-0.0375 -0.03721,-0.0372 -0.03721,-0.0372 -0.07508,-0.0373 -0.07526,-0.11236 -0.03772,-0.14986 l 0.224793,-0.29921 c -0.03754,0 -0.03772,-0.0374 -0.03772,-0.0749 l -0.336931,-0.11266 -0.03721,-0.0372 c -0.03754,-0.0373 -0.03754,-0.11236 0,-0.14986 l 0.261483,-0.262 v -0.0744 l -0.336413,-0.22479 -0.03772,-0.0377 c 0,-0.0373 9.1e-5,-0.11185 0.07493,-0.14935 l 0.299206,-0.18707 v -0.0749 l -0.261999,-0.262 c -0.03754,0 -0.03721,-0.0372 -0.03721,-0.0372 0,-0.0749 0.03687,-0.11236 0.07441,-0.14986 l 0.299723,-0.14986 c 0.0373,0 0.03721,-0.0374 0.03721,-0.0749 l -0.224792,-0.29921 v -0.0372 c 0,-0.0376 0.03781,-0.11266 0.112654,-0.11266 l 0.374138,-0.0749 v -0.0744 l -0.149862,-0.33693 v -0.0377 c 0,-0.0749 0.03781,-0.11213 0.112654,-0.11213 h 0.374138 c 0.03754,0 0.03763,-0.0377 0.07493,-0.0377 l -0.07493,-0.37414 v -0.0372 c 0,-0.0748 0.03781,-0.11243 0.112654,-0.0749 l 0.374138,0.0749 c 0,-0.0373 0.03721,-0.0374 0.03721,-0.0749 v -0.41186 c 0.03731,-0.0375 0.112322,-0.0747 0.149862,-0.0372 l 0.33693,0.14934 c 0.0373,-0.0373 0.07493,-0.0372 0.07493,-0.0372 l 0.07441,-0.37414 v -0.0377 c 0.03741,-0.0749 0.112229,-0.0747 0.187068,-0.0372 l 0.299724,0.22479 c 0,-0.0375 0.03739,-0.0377 0.07493,-0.0377 l 0.112137,-0.33693 0.03772,-0.0372 c 0.03731,-0.0375 0.111805,-0.0375 0.149345,0 l 0.262,0.262 h 0.07493 l 0.187069,-0.33693 z m 0.07648,0.65474 c -0.05599,0 -0.111925,0.0191 -0.149345,0.0563 -0.07508,0.11226 -0.112564,0.22441 -0.03772,0.29921 0.112258,0.11237 0.224556,0.11237 0.336931,0 0.07484,-0.0748 0.07484,-0.22441 0,-0.29921 -0.03742,-0.0374 -0.09373,-0.0563 -0.149862,-0.0563 z m -0.486792,0.31833 c -0.598753,0.11224 -1.122639,0.41186 -1.534273,0.86093 h 2.844271 c 0.07484,0 0.336972,0.0374 0.598929,0.18707 0.149676,0.11227 0.411345,0.33684 0.411345,0.71107 0,0.3368 -0.29926,0.59836 -0.561206,0.78548 0.224527,0.1871 0.374228,0.2623 0.449068,0.74879 0.03743,0.0749 0.187231,0.14935 0.33693,0.14935 0.149677,0 0.336414,-0.0747 0.336414,-0.37414 v -0.11214 c 0,-0.0373 1.84e-4,-0.0372 0.03772,-0.0372 h 0.299206 v -0.18707 -0.29972 l -0.486275,-0.22427 c -0.112375,-0.0374 -0.149678,-0.14963 -0.112138,-0.262 l 0.261483,-0.59893 c -0.411635,-0.71101 -1.084838,-1.19754 -1.870687,-1.34721 l -0.374137,0.37414 c -0.112258,0.0748 -0.224884,0.0748 -0.299724,0 z m -2.177645,1.70739 c -0.03216,0 -0.06748,0.005 -0.104903,0.0139 -0.112376,0.0374 -0.149678,0.18683 -0.112138,0.29921 0.03742,0.11238 0.186831,0.15015 0.299207,0.11265 0.112375,-0.0374 0.150194,-0.18683 0.112654,-0.2992 -0.02806,-0.0843 -0.09834,-0.12661 -0.19482,-0.12661 z m 5.307687,0 c -0.0912,2e-5 -0.182685,0.0418 -0.21084,0.12609 -0.03731,0.11228 2.79e-4,0.26222 0.112654,0.29972 0.11227,0.0373 0.261667,-2.7e-4 0.299207,-0.11265 0.03731,-0.11228 2.38e-4,-0.26171 -0.112138,-0.29921 -0.02807,-0.009 -0.05849,-0.014 -0.08888,-0.0139 z m -4.888591,0.0517 0.112655,0.22427 c 0.03732,0.11226 -2.8e-4,0.2245 -0.112655,0.262 l -0.486275,0.18707 c -0.03731,0.37422 -2.37e-4,0.711 0.112138,1.08521 h 0.748274 v -1.75855 z m 1.609204,0 v 0.524 h 0.86093 c 0.187107,0 0.411344,-0.0749 0.411344,-0.262 0,-0.22447 -0.29963,-0.262 -0.33693,-0.262 z m 0.07493,1.27227 v 0.48628 h 0.636137 c 0.0373,0 0.03721,2.2e-4 0.03721,0.0377 v 0.786 c 0,0.0375 9.3e-5,0.0372 -0.03721,0.0372 h -2.245341 c 0.07485,0.0748 0.149952,0.1872 0.224792,0.262 l 0.449069,-0.11214 c 0.11215,-0.0374 0.186735,0.037 0.224275,0.14934 l 0.112655,0.524 c 0.374227,0.18716 0.747973,0.262 1.159619,0.262 0.411647,0 0.786121,-0.0746 1.122929,-0.22427 l 0.149862,-0.524 c 0,-0.1122 0.1119,-0.18737 0.224275,-0.14987 l 0.561206,0.11214 c 0.112258,-0.11227 0.18716,-0.18682 0.262,-0.2992 h -1.160136 c -0.187108,0 -0.373804,-0.26176 -0.411344,-0.37414 -0.07485,-0.11226 -0.112322,-0.48656 -0.149862,-0.59893 -0.11227,-0.37421 -0.374228,-0.37414 -0.449068,-0.37414 z m -1.070219,1.78749 c -0.01645,0.001 -0.034,0.004 -0.05271,0.009 -0.149556,0.0374 -0.224609,0.14962 -0.187069,0.262 0.03742,0.14961 0.149625,0.22457 0.262,0.18707 0.112256,-0.0374 0.187069,-0.14963 0.187069,-0.262 -0.03274,-0.13091 -0.09416,-0.20457 -0.20929,-0.19585 z m 3.278353,0.009 c -0.112281,0 -0.22446,0.0747 -0.262,0.18707 0,0.11228 0.07469,0.2245 0.187069,0.262 0.149582,0.0374 0.262,-0.0374 0.262,-0.18707 0,-0.11228 -0.07469,-0.2245 -0.187069,-0.262 z"
       inkscape:transform-center-y="-2.4398093" />
  </g>
</svg>
